<?xml version="1.0" encoding="utf-8"?>
<!-- Generator: Adobe Illustrator 17.0.0, SVG Export Plug-In . SVG Version: 6.00 Build 0)  -->
<!DOCTYPE svg PUBLIC "-//W3C//DTD SVG 1.1//EN" "http://www.w3.org/Graphics/SVG/1.1/DTD/svg11.dtd">
<svg version="1.1" id="Capa_1" xmlns="http://www.w3.org/2000/svg" xmlns:xlink="http://www.w3.org/1999/xlink" x="0px" y="0px"
	 width="244px" height="17.008px" viewBox="0 0 244 17.008" enable-background="new 0 0 244 17.008" xml:space="preserve">
<g>
	<path fill="#010101" d="M137.951,1.417c0.089,0,0.386,0.038,0.386,0.541c0,0.592,0,2.773,0,2.773s-0.216-0.011-0.583-0.011
		c-1.932,0-8.071,0.309-9.287,4.177c-0.027,0.472-0.097,0.931-0.211,1.374c0,0.022-0.001,0.042-0.001,0.064
		c0,0-1.097,4.718-6.075,5.211c-0.085,0.008-0.17,0.017-0.257,0.023c-0.032,0.002-0.064,0.006-0.096,0.007
		c-0.144,0.01-0.289,0.015-0.434,0.015c-0.012,0-0.024-0.001-0.036-0.001c-0.011,0-0.021,0.001-0.032,0.001
		c-3.367,0-5.203-1.804-6.143-3.674c-0.526-0.954-0.837-2.043-0.869-3.202c-0.004-0.074-0.006-0.145-0.006-0.211
		c0-3.914,3.172-7.086,7.086-7.086c0.038,0,0.075,0.002,0.114,0.004c0.033,0,0.064-0.004,0.097-0.004h2.313
		c0,0,0.389,0.989-0.983,2.094c-0.371,0.298,0.44,0.418,1.141,0.267c0.56-0.121,0.966-0.444,1.257-0.785
		c0.517-0.606,0.483-1.576,0.483-1.576h12.114C137.926,1.418,137.935,1.417,137.951,1.417 M138.551,0h-0.067l-0.012,0.001h-11.053
		h-0.944V0h-1.051h-4.066l-0.1,0.002L121.137,0c-4.69,0-8.505,3.815-8.505,8.505c0,0.084,0.002,0.175,0.007,0.269
		c0.038,1.328,0.4,2.657,1.044,3.827c1.422,2.83,4.05,4.408,7.381,4.408h0.022l0.04-0.001l0.011,0.001
		c0.175,0,0.348-0.007,0.52-0.017l0.085-0.006c0.126-0.008,0.226-0.019,0.325-0.029c4.734-0.469,6.852-4.318,7.311-6.288
		l0.028-0.118v-0.054c0.108-0.449,0.179-0.911,0.212-1.376c1.196-3.372,7.469-3.545,8.727-3.545c0.341,0,0.546,0.01,0.559,0.011
		l1.105,0.056l0.001-1.106V1.62C140.009,0.556,139.275,0,138.551,0L138.551,0z"/>
</g>
<path fill="#010101" d="M125.759,5.815c-0.543,0.892-1.015,1.358-1.416,1.58c-0.07,0.039-0.895,0.501-1.23,0.634
	c-1.491,0.591-2.675,0.252-3.353-0.085c-1.252-0.523-1.173-1.246-1.173-1.246l-0.16,1.489c1.049,1.489,3.521,1.259,4.949,0.974
	c0.641-0.128,1.585-0.467,1.805-0.655c0.383-0.326,0.743-0.782,0.881-1.41C126.228,6.31,126.035,5.36,125.759,5.815z"/>
<g>
	<path fill="#010101" d="M124.088,5.934c-0.754-0.731-1.674-1.096-2.764-1.096c-1.217,0-2.187,0.424-2.907,1.272
		c-0.721,0.849-1.081,1.988-1.081,3.418c0,1.336,0.341,2.399,1.026,3.192c0.686,0.791,1.61,1.188,2.773,1.188
		c1.394,0,2.424-0.448,3.087-1.343c0.664-0.895,0.996-2.03,0.997-3.403C125.218,7.74,124.842,6.664,124.088,5.934z M123.199,11.597
		c-0.35,0.717-0.992,1.076-1.93,1.076c-0.855,0-1.478-0.303-1.873-0.904c-0.395-0.604-0.59-1.359-0.59-2.264
		c0-0.942,0.197-1.747,0.59-2.415c0.395-0.667,1.023-1,1.888-1c0.975,0,1.662,0.392,2.061,1.175
		c0.251,0.499,0.378,1.144,0.378,1.939C123.723,10.08,123.546,10.88,123.199,11.597z"/>
</g>
<g>
	<path fill="#010101" d="M105.804,8.505c0-1.027,0.192-2.007,0.527-2.919H4.639H1.966c-1.157,0.998-1.753,2.526-1.916,3h5.332h3.591
		h96.834C105.806,8.56,105.804,8.53,105.804,8.505z"/>
	<path fill="#010101" d="M242.059,5.587h-2.699h-93.632c0.335,0.912,0.527,1.892,0.527,2.918c0,0.026-0.002,0.055-0.002,0.082
		h92.367h5.355C243.811,8.114,243.215,6.586,242.059,5.587z"/>
</g>
</svg>
